<svg width="29" height="29" viewBox="0 0 29 29" fill="none" xmlns="http://www.w3.org/2000/svg">
<path d="M16.9163 2.41699H7.24967C6.60873 2.41699 5.99405 2.6716 5.54083 3.12482C5.08762 3.57803 4.83301 4.19272 4.83301 4.83366V24.167C4.83301 24.8079 5.08762 25.4226 5.54083 25.8758C5.99405 26.329 6.60873 26.5837 7.24967 26.5837H21.7497C22.3906 26.5837 23.0053 26.329 23.4585 25.8758C23.9117 25.4226 24.1663 24.8079 24.1663 24.167V9.66699L16.9163 2.41699Z" stroke="#212121" stroke-width="2" stroke-linecap="round" stroke-linejoin="round"/>
<path d="M16.917 2.41699V9.66699H24.167" stroke="#212121" stroke-width="2" stroke-linecap="round" stroke-linejoin="round"/>
<path d="M19.3337 15.708H9.66699" stroke="#212121" stroke-width="2" stroke-linecap="round" stroke-linejoin="round"/>
<path d="M19.3337 20.542H9.66699" stroke="#212121" stroke-width="2" stroke-linecap="round" stroke-linejoin="round"/>
<path d="M12.0837 10.875H10.8753H9.66699" stroke="#212121" stroke-width="2" stroke-linecap="round" stroke-linejoin="round"/>
</svg>
