<svg width="102" height="20" viewBox="0 0 102 20" fill="none" xmlns="http://www.w3.org/2000/svg">
<path d="M11.7244 1.54545H14.8864V12.9489C14.8864 14.1989 14.5909 15.2983 14 16.2472C13.4148 17.196 12.5909 17.9375 11.5284 18.4716C10.4659 19 9.22443 19.2642 7.80398 19.2642C6.37784 19.2642 5.13352 19 4.07102 18.4716C3.00852 17.9375 2.18466 17.196 1.59943 16.2472C1.0142 15.2983 0.721591 14.1989 0.721591 12.9489V1.54545H3.88352V12.6847C3.88352 13.4119 4.04261 14.0597 4.3608 14.6278C4.68466 15.196 5.1392 15.642 5.72443 15.9659C6.30966 16.2841 7.00284 16.4432 7.80398 16.4432C8.60511 16.4432 9.2983 16.2841 9.88352 15.9659C10.4744 15.642 10.929 15.196 11.2472 14.6278C11.5653 14.0597 11.7244 13.4119 11.7244 12.6847V1.54545ZM21.272 11.3295V19H18.1868V5.90909H21.1357V8.13352H21.2891C21.5902 7.40057 22.0703 6.81818 22.7294 6.38636C23.3942 5.95455 24.2152 5.73864 25.1925 5.73864C26.0959 5.73864 26.8828 5.93182 27.5533 6.31818C28.2294 6.70455 28.7521 7.2642 29.1214 7.99716C29.4964 8.73011 29.6811 9.61932 29.6754 10.6648V19H26.5902V11.142C26.5902 10.267 26.3629 9.58239 25.9084 9.08807C25.4595 8.59375 24.8374 8.34659 24.0419 8.34659C23.5021 8.34659 23.022 8.46591 22.6016 8.70455C22.1868 8.9375 21.8601 9.27557 21.6214 9.71875C21.3885 10.1619 21.272 10.6989 21.272 11.3295ZM32.8118 19V5.90909H35.897V19H32.8118ZM34.3629 4.05114C33.8743 4.05114 33.4538 3.8892 33.1016 3.56534C32.7493 3.23579 32.5732 2.84091 32.5732 2.38068C32.5732 1.91477 32.7493 1.51989 33.1016 1.19602C33.4538 0.866477 33.8743 0.701704 34.3629 0.701704C34.8572 0.701704 35.2777 0.866477 35.6243 1.19602C35.9766 1.51989 36.1527 1.91477 36.1527 2.38068C36.1527 2.84091 35.9766 3.23579 35.6243 3.56534C35.2777 3.8892 34.8572 4.05114 34.3629 4.05114ZM45.1591 19V1.54545H51.8409C53.1023 1.54545 54.1506 1.74432 54.9858 2.14204C55.8267 2.53409 56.4545 3.07102 56.8693 3.75284C57.2898 4.43466 57.5 5.20739 57.5 6.07102C57.5 6.78125 57.3636 7.3892 57.0909 7.89489C56.8182 8.39489 56.4517 8.80114 55.9915 9.11364C55.5312 9.42614 55.017 9.65057 54.4489 9.78693V9.95739C55.0682 9.99148 55.6619 10.1818 56.2301 10.5284C56.804 10.8693 57.2727 11.3523 57.6364 11.9773C58 12.6023 58.1818 13.358 58.1818 14.2443C58.1818 15.1477 57.9631 15.9602 57.5256 16.6818C57.0881 17.3977 56.429 17.9631 55.5483 18.3778C54.6676 18.7926 53.5597 19 52.2244 19H45.1591ZM48.321 16.358H51.7216C52.8693 16.358 53.696 16.1392 54.2017 15.7017C54.7131 15.2585 54.9688 14.6903 54.9688 13.9972C54.9688 13.4801 54.8409 13.0142 54.5852 12.5994C54.3295 12.179 53.9659 11.8494 53.4943 11.6108C53.0227 11.3665 52.4602 11.2443 51.8068 11.2443H48.321V16.358ZM48.321 8.96875H51.4489C51.9943 8.96875 52.4858 8.86932 52.9233 8.67045C53.3608 8.46591 53.7045 8.17898 53.9545 7.80966C54.2102 7.43466 54.3381 6.99148 54.3381 6.48011C54.3381 5.80398 54.0994 5.24716 53.6222 4.80966C53.1506 4.37216 52.4489 4.15341 51.517 4.15341H48.321V8.96875ZM64.5632 19.2642C63.7337 19.2642 62.9865 19.1165 62.3217 18.821C61.6626 18.5199 61.1399 18.0767 60.7536 17.4915C60.3729 16.9062 60.1825 16.1847 60.1825 15.3267C60.1825 14.5881 60.3189 13.9773 60.5916 13.4943C60.8643 13.0114 61.2365 12.625 61.7081 12.3352C62.1797 12.0455 62.7109 11.8267 63.3018 11.679C63.8984 11.5256 64.5149 11.4148 65.1513 11.3466C65.9183 11.267 66.5405 11.196 67.0178 11.1335C67.495 11.0653 67.8416 10.9631 68.0575 10.8267C68.2791 10.6847 68.3899 10.4659 68.3899 10.1705V10.1193C68.3899 9.47727 68.1996 8.98011 67.8189 8.62784C67.4382 8.27557 66.8899 8.09943 66.174 8.09943C65.4183 8.09943 64.8189 8.2642 64.3757 8.59375C63.9382 8.9233 63.6428 9.3125 63.4893 9.76136L60.6087 9.35227C60.8359 8.55682 61.2109 7.89205 61.7337 7.35795C62.2564 6.81818 62.8956 6.41477 63.6513 6.14773C64.407 5.875 65.2422 5.73864 66.157 5.73864C66.7876 5.73864 67.4155 5.8125 68.0405 5.96023C68.6655 6.10795 69.2365 6.35227 69.7536 6.69318C70.2706 7.02841 70.6854 7.4858 70.9979 8.06534C71.3161 8.64489 71.4751 9.36932 71.4751 10.2386V19H68.5092V17.2017H68.407C68.2195 17.5653 67.9553 17.9062 67.6143 18.2244C67.2791 18.5369 66.8558 18.7898 66.3445 18.983C65.8388 19.1705 65.245 19.2642 64.5632 19.2642ZM65.3643 16.9972C65.9837 16.9972 66.5206 16.875 66.9751 16.6307C67.4297 16.3807 67.7791 16.0511 68.0234 15.642C68.2734 15.233 68.3984 14.7869 68.3984 14.304V12.7614C68.3018 12.8409 68.1371 12.9148 67.9041 12.983C67.6768 13.0511 67.4212 13.1108 67.1371 13.1619C66.853 13.2131 66.5717 13.2585 66.2933 13.2983C66.0149 13.3381 65.7734 13.3722 65.5689 13.4006C65.1087 13.4631 64.6967 13.5653 64.3331 13.7074C63.9695 13.8494 63.6825 14.0483 63.4723 14.304C63.2621 14.554 63.157 14.8778 63.157 15.2756C63.157 15.8438 63.3643 16.2727 63.7791 16.5625C64.1939 16.8523 64.7223 16.9972 65.3643 16.9972ZM77.6626 11.3295V19H74.5774V5.90909H77.5263V8.13352H77.6797C77.9808 7.40057 78.4609 6.81818 79.12 6.38636C79.7848 5.95455 80.6058 5.73864 81.5831 5.73864C82.4865 5.73864 83.2734 5.93182 83.9439 6.31818C84.62 6.70455 85.1428 7.2642 85.5121 7.99716C85.8871 8.73011 86.0717 9.61932 86.0661 10.6648V19H82.9808V11.142C82.9808 10.267 82.7536 9.58239 82.299 9.08807C81.8501 8.59375 81.228 8.34659 80.4325 8.34659C79.8928 8.34659 79.4126 8.46591 78.9922 8.70455C78.5774 8.9375 78.2507 9.27557 78.0121 9.71875C77.7791 10.1619 77.6626 10.6989 77.6626 11.3295ZM92.0149 14.892L92.0064 11.1676H92.5007L97.2053 5.90909H100.81L95.0234 12.3523H94.3842L92.0149 14.892ZM89.2024 19V1.54545H92.2876V19H89.2024ZM97.4183 19L93.157 13.0426L95.2365 10.8693L101.109 19H97.4183Z" fill="black"/>
</svg>
