<svg width="224" height="44" viewBox="0 0 224 44" fill="none" xmlns="http://www.w3.org/2000/svg">
<path d="M9.98047 4.3V24.8C9.98047 25.9 10.0138 27.0333 10.0805 28.2C10.1805 29.3333 10.4305 30.3667 10.8305 31.3C11.2638 32.2333 11.9305 33 12.8305 33.6C13.7305 34.1667 14.9971 34.45 16.6305 34.45C18.2638 34.45 19.5138 34.1667 20.3805 33.6C21.2805 33 21.9471 32.2333 22.3805 31.3C22.8138 30.3667 23.0638 29.3333 23.1305 28.2C23.2305 27.0333 23.2805 25.9 23.2805 24.8V4.3H33.0305V26.15C33.0305 32.0167 31.6805 36.3 28.9805 39C26.3138 41.7 22.1971 43.05 16.6305 43.05C11.0638 43.05 6.93047 41.7 4.23047 39C1.53047 36.3 0.180469 32.0167 0.180469 26.15V4.3H9.98047ZM40.6391 16.35H49.6891V19.6C50.9224 18.1 52.1724 17.1 53.4391 16.6C54.7057 16.0667 56.1891 15.8 57.8891 15.8C59.6891 15.8 61.2224 16.1 62.4891 16.7C63.7891 17.2667 64.8891 18.0833 65.7891 19.15C66.5224 20.0167 67.0224 20.9833 67.2891 22.05C67.5557 23.1167 67.6891 24.3333 67.6891 25.7V42H58.6391V29.05C58.6391 27.7833 58.5391 26.7667 58.3391 26C58.1724 25.2 57.8557 24.5667 57.3891 24.1C56.9891 23.7 56.5391 23.4167 56.0391 23.25C55.5391 23.0833 55.0057 23 54.4391 23C52.9057 23 51.7224 23.4667 50.8891 24.4C50.0891 25.3 49.6891 26.6 49.6891 28.3V42H40.6391V16.35ZM82.8922 16.35V42H73.8422V16.35H82.8922ZM73.2422 6.5C73.2422 5.8 73.3755 5.15 73.6422 4.55C73.9089 3.91667 74.2755 3.36667 74.7422 2.9C75.2089 2.43333 75.7422 2.06666 76.3422 1.8C76.9755 1.53333 77.6422 1.4 78.3422 1.4C79.0422 1.4 79.6922 1.53333 80.2922 1.8C80.9255 2.06666 81.4755 2.43333 81.9422 2.9C82.4089 3.36667 82.7755 3.91667 83.0422 4.55C83.3089 5.15 83.4422 5.8 83.4422 6.5C83.4422 7.2 83.3089 7.86667 83.0422 8.5C82.7755 9.1 82.4089 9.63333 81.9422 10.1C81.4755 10.5667 80.9255 10.9333 80.2922 11.2C79.6922 11.4667 79.0422 11.6 78.3422 11.6C77.6422 11.6 76.9755 11.4667 76.3422 11.2C75.7422 10.9333 75.2089 10.5667 74.7422 10.1C74.2755 9.63333 73.9089 9.1 73.6422 8.5C73.3755 7.86667 73.2422 7.2 73.2422 6.5ZM99.7266 34.4H101.877C104.343 34.4 106.11 34.0833 107.177 33.45C108.243 32.8167 108.777 31.8 108.777 30.4C108.777 29 108.243 27.9833 107.177 27.35C106.11 26.7167 104.343 26.4 101.877 26.4H99.7266V34.4ZM99.7266 19.1H101.527C104.593 19.1 106.127 17.8833 106.127 15.45C106.127 13.0167 104.593 11.8 101.527 11.8H99.7266V19.1ZM89.9266 4.3H104.527C107.993 4.3 110.627 5.13333 112.427 6.8C114.227 8.46666 115.127 10.8667 115.127 14C115.127 15.9 114.777 17.4833 114.077 18.75C113.41 19.9833 112.377 21.0333 110.977 21.9C112.377 22.1667 113.56 22.5833 114.527 23.15C115.527 23.6833 116.327 24.35 116.927 25.15C117.56 25.95 118.01 26.85 118.277 27.85C118.543 28.85 118.677 29.9167 118.677 31.05C118.677 32.8167 118.36 34.3833 117.727 35.75C117.127 37.1167 116.26 38.2667 115.127 39.2C114.027 40.1333 112.677 40.8333 111.077 41.3C109.477 41.7667 107.677 42 105.677 42H89.9266V4.3ZM132.096 29.1C132.096 29.9333 132.246 30.7167 132.546 31.45C132.846 32.15 133.246 32.7667 133.746 33.3C134.279 33.8333 134.896 34.25 135.596 34.55C136.329 34.85 137.112 35 137.946 35C138.746 35 139.496 34.85 140.196 34.55C140.929 34.25 141.546 33.8333 142.046 33.3C142.579 32.7667 142.996 32.15 143.296 31.45C143.629 30.75 143.796 30 143.796 29.2C143.796 28.4 143.629 27.65 143.296 26.95C142.996 26.2167 142.579 25.5833 142.046 25.05C141.546 24.5167 140.929 24.1 140.196 23.8C139.496 23.5 138.746 23.35 137.946 23.35C137.112 23.35 136.329 23.5 135.596 23.8C134.896 24.1 134.279 24.5167 133.746 25.05C133.246 25.5833 132.846 26.2 132.546 26.9C132.246 27.5667 132.096 28.3 132.096 29.1ZM143.496 16.35H152.596V42H143.496V39.15C141.562 41.5833 138.946 42.8 135.646 42.8C133.779 42.8 132.062 42.4667 130.496 41.8C128.929 41.1 127.562 40.1333 126.396 38.9C125.229 37.6667 124.312 36.2167 123.646 34.55C123.012 32.8833 122.696 31.0667 122.696 29.1C122.696 27.2667 123.012 25.5333 123.646 23.9C124.279 22.2333 125.162 20.7833 126.296 19.55C127.429 18.3167 128.779 17.35 130.346 16.65C131.912 15.9167 133.646 15.55 135.546 15.55C138.746 15.55 141.396 16.6667 143.496 18.9V16.35ZM158.754 16.35H167.804V19.6C169.038 18.1 170.288 17.1 171.554 16.6C172.821 16.0667 174.304 15.8 176.004 15.8C177.804 15.8 179.338 16.1 180.604 16.7C181.904 17.2667 183.004 18.0833 183.904 19.15C184.638 20.0167 185.138 20.9833 185.404 22.05C185.671 23.1167 185.804 24.3333 185.804 25.7V42H176.754V29.05C176.754 27.7833 176.654 26.7667 176.454 26C176.288 25.2 175.971 24.5667 175.504 24.1C175.104 23.7 174.654 23.4167 174.154 23.25C173.654 23.0833 173.121 23 172.554 23C171.021 23 169.838 23.4667 169.004 24.4C168.204 25.3 167.804 26.6 167.804 28.3V42H158.754V16.35ZM201.007 0.499998V25.6L210.507 16.35H222.907L210.057 28.2L223.657 42H210.957L201.007 31.55V42H191.957V0.499998H201.007Z" fill="url(#paint0_linear_2186_74)"/>
<defs>
<linearGradient id="paint0_linear_2186_74" x1="-4" y1="-10" x2="31.2562" y2="111.794" gradientUnits="userSpaceOnUse">
<stop stop-color="#C2C7FF"/>
<stop offset="1" stop-color="#AD99FF"/>
</linearGradient>
</defs>
</svg>
