<svg width="109" height="21" viewBox="0 0 109 21" fill="none" xmlns="http://www.w3.org/2000/svg">
<path d="M5.6 1.904V11.744C5.6 12.272 5.616 12.816 5.648 13.376C5.696 13.92 5.816 14.416 6.008 14.864C6.216 15.312 6.536 15.68 6.968 15.968C7.4 16.24 8.008 16.376 8.792 16.376C9.576 16.376 10.176 16.24 10.592 15.968C11.024 15.68 11.344 15.312 11.552 14.864C11.76 14.416 11.88 13.92 11.912 13.376C11.96 12.816 11.984 12.272 11.984 11.744V1.904H16.664V12.392C16.664 15.208 16.016 17.264 14.72 18.56C13.44 19.856 11.464 20.504 8.792 20.504C6.12 20.504 4.136 19.856 2.84 18.56C1.544 17.264 0.896 15.208 0.896 12.392V1.904H5.6ZM20.3161 7.688H24.6601V9.248C25.2521 8.528 25.8521 8.048 26.4601 7.808C27.0681 7.552 27.7801 7.424 28.5961 7.424C29.4601 7.424 30.1961 7.568 30.8041 7.856C31.4281 8.128 31.9561 8.52 32.3881 9.032C32.7401 9.448 32.9801 9.912 33.1081 10.424C33.2361 10.936 33.3001 11.52 33.3001 12.176V20H28.9561V13.784C28.9561 13.176 28.9081 12.688 28.8121 12.32C28.7321 11.936 28.5801 11.632 28.3561 11.408C28.1641 11.216 27.9481 11.08 27.7081 11C27.4681 10.92 27.2121 10.88 26.9401 10.88C26.2041 10.88 25.6361 11.104 25.2361 11.552C24.8521 11.984 24.6601 12.608 24.6601 13.424V20H20.3161V7.688ZM40.5976 7.688V20H36.2536V7.688H40.5976ZM35.9656 2.96C35.9656 2.624 36.0296 2.312 36.1576 2.024C36.2856 1.72 36.4616 1.456 36.6856 1.232C36.9096 1.008 37.1656 0.831999 37.4536 0.704C37.7576 0.575999 38.0776 0.511999 38.4136 0.511999C38.7496 0.511999 39.0616 0.575999 39.3496 0.704C39.6536 0.831999 39.9176 1.008 40.1416 1.232C40.3656 1.456 40.5416 1.72 40.6696 2.024C40.7976 2.312 40.8616 2.624 40.8616 2.96C40.8616 3.296 40.7976 3.616 40.6696 3.92C40.5416 4.208 40.3656 4.464 40.1416 4.688C39.9176 4.912 39.6536 5.088 39.3496 5.216C39.0616 5.344 38.7496 5.408 38.4136 5.408C38.0776 5.408 37.7576 5.344 37.4536 5.216C37.1656 5.088 36.9096 4.912 36.6856 4.688C36.4616 4.464 36.2856 4.208 36.1576 3.92C36.0296 3.616 35.9656 3.296 35.9656 2.96ZM48.6781 16.352H49.7101C50.8941 16.352 51.7421 16.2 52.2541 15.896C52.7661 15.592 53.0221 15.104 53.0221 14.432C53.0221 13.76 52.7661 13.272 52.2541 12.968C51.7421 12.664 50.8941 12.512 49.7101 12.512H48.6781V16.352ZM48.6781 9.008H49.5421C51.0141 9.008 51.7501 8.424 51.7501 7.256C51.7501 6.088 51.0141 5.504 49.5421 5.504H48.6781V9.008ZM43.9741 1.904H50.9821C52.6461 1.904 53.9101 2.304 54.7741 3.104C55.6381 3.904 56.0701 5.056 56.0701 6.56C56.0701 7.472 55.9021 8.232 55.5661 8.84C55.2461 9.432 54.7501 9.936 54.0781 10.352C54.7501 10.48 55.3181 10.68 55.7821 10.952C56.2621 11.208 56.6461 11.528 56.9341 11.912C57.2381 12.296 57.4541 12.728 57.5821 13.208C57.7101 13.688 57.7741 14.2 57.7741 14.744C57.7741 15.592 57.6221 16.344 57.3181 17C57.0301 17.656 56.6141 18.208 56.0701 18.656C55.5421 19.104 54.8941 19.44 54.1261 19.664C53.3581 19.888 52.4941 20 51.5341 20H43.9741V1.904ZM64.2153 13.808C64.2153 14.208 64.2873 14.584 64.4313 14.936C64.5753 15.272 64.7673 15.568 65.0073 15.824C65.2633 16.08 65.5593 16.28 65.8953 16.424C66.2473 16.568 66.6233 16.64 67.0233 16.64C67.4073 16.64 67.7673 16.568 68.1033 16.424C68.4553 16.28 68.7513 16.08 68.9913 15.824C69.2473 15.568 69.4473 15.272 69.5913 14.936C69.7513 14.6 69.8313 14.24 69.8313 13.856C69.8313 13.472 69.7513 13.112 69.5913 12.776C69.4473 12.424 69.2473 12.12 68.9913 11.864C68.7513 11.608 68.4553 11.408 68.1033 11.264C67.7673 11.12 67.4073 11.048 67.0233 11.048C66.6233 11.048 66.2473 11.12 65.8953 11.264C65.5593 11.408 65.2633 11.608 65.0073 11.864C64.7673 12.12 64.5753 12.416 64.4313 12.752C64.2873 13.072 64.2153 13.424 64.2153 13.808ZM69.6873 7.688H74.0553V20H69.6873V18.632C68.7593 19.8 67.5033 20.384 65.9193 20.384C65.0233 20.384 64.1993 20.224 63.4473 19.904C62.6953 19.568 62.0393 19.104 61.4793 18.512C60.9193 17.92 60.4793 17.224 60.1593 16.424C59.8553 15.624 59.7033 14.752 59.7033 13.808C59.7033 12.928 59.8553 12.096 60.1593 11.312C60.4633 10.512 60.8873 9.816 61.4313 9.224C61.9753 8.632 62.6233 8.168 63.3753 7.832C64.1273 7.48 64.9593 7.304 65.8713 7.304C67.4073 7.304 68.6793 7.84 69.6873 8.912V7.688ZM77.0114 7.688H81.3554V9.248C81.9474 8.528 82.5474 8.048 83.1554 7.808C83.7634 7.552 84.4754 7.424 85.2914 7.424C86.1554 7.424 86.8914 7.568 87.4994 7.856C88.1234 8.128 88.6514 8.52 89.0834 9.032C89.4354 9.448 89.6754 9.912 89.8034 10.424C89.9314 10.936 89.9954 11.52 89.9954 12.176V20H85.6514V13.784C85.6514 13.176 85.6034 12.688 85.5074 12.32C85.4274 11.936 85.2754 11.632 85.0514 11.408C84.8594 11.216 84.6434 11.08 84.4034 11C84.1634 10.92 83.9074 10.88 83.6354 10.88C82.8994 10.88 82.3314 11.104 81.9314 11.552C81.5474 11.984 81.3554 12.608 81.3554 13.424V20H77.0114V7.688ZM97.2929 0.079999V12.128L101.853 7.688H107.805L101.637 13.376L108.165 20H102.069L97.2929 14.984V20H92.9489V0.079999H97.2929Z" fill="url(#paint0_linear_2186_71)"/>
<defs>
<linearGradient id="paint0_linear_2186_71" x1="-1" y1="-5" x2="16.1655" y2="54.0064" gradientUnits="userSpaceOnUse">
<stop stop-color="#C2C7FF"/>
<stop offset="1" stop-color="#AD99FF"/>
</linearGradient>
</defs>
</svg>
