<svg width="15" height="13" viewBox="0 0 15 13" fill="none" xmlns="http://www.w3.org/2000/svg">
<path d="M7.73631 0.450617L9.05577 4.27261C9.16016 4.57498 9.44483 4.77786 9.76471 4.77786H13.967C14.2128 4.77786 14.311 5.09547 14.1081 5.23423L10.7616 7.52259C10.4826 7.71332 10.3657 8.06702 10.476 8.38643L11.7663 12.1242C11.8449 12.3519 11.5877 12.5481 11.3889 12.4121L7.92334 10.0423C7.6681 9.86781 7.3319 9.86781 7.07666 10.0423L3.61108 12.4121C3.41225 12.5481 3.15505 12.3519 3.23365 12.1242L4.52403 8.38643C4.63429 8.06702 4.51735 7.71332 4.23843 7.52259L0.891918 5.23423C0.68899 5.09547 0.787198 4.77786 1.03303 4.77786H5.23529C5.55517 4.77786 5.83984 4.57498 5.94423 4.27261L7.26369 0.450616C7.34121 0.22606 7.65879 0.226059 7.73631 0.450617Z" stroke="url(#paint0_linear_2274_69)" stroke-width="0.5"/>
<defs>
<linearGradient id="paint0_linear_2274_69" x1="-1" y1="-1" x2="14.9706" y2="15.9688" gradientUnits="userSpaceOnUse">
<stop stop-color="#C2C7FF"/>
<stop offset="1" stop-color="#AD99FF"/>
</linearGradient>
</defs>
</svg>
